<svg width="205" height="144" viewBox="0 0 205 144" fill="none" xmlns="http://www.w3.org/2000/svg">
<path d="M23.0885 143.089C23.6515 143.697 24.6006 143.733 25.2083 143.17C25.816 142.607 25.8523 141.658 25.2893 141.051L23.0885 143.089ZM12.0489 65.13L13.1809 66.1142L13.1811 66.114L12.0489 65.13ZM149.419 48.44L149.367 46.9409L149.367 46.9409L149.419 48.44ZM189.39 4.11449C189.26 3.29634 188.492 2.73854 187.673 2.86861C186.855 2.99868 186.297 3.76737 186.427 4.58552L189.39 4.11449ZM168.287 15.9146C167.666 16.4622 167.606 17.4101 168.153 18.0317C168.701 18.6532 169.649 18.7131 170.271 18.1655L168.287 15.9146ZM201.649 22.0392C201.632 22.8674 202.29 23.5527 203.118 23.5697C203.946 23.5867 204.632 22.9291 204.649 22.1009L201.649 22.0392ZM24.1889 142.07C25.2893 141.051 25.2895 141.051 25.2896 141.051C25.2894 141.051 25.2893 141.051 25.2889 141.05C25.2881 141.049 25.2868 141.048 25.2848 141.046C25.2808 141.041 25.2745 141.034 25.2657 141.025C25.2482 141.006 25.2211 140.976 25.185 140.936C25.1128 140.856 25.0042 140.735 24.8626 140.575C24.5794 140.254 24.1644 139.776 23.6442 139.153C22.6037 137.907 21.1441 136.086 19.479 133.797C16.1452 129.213 12.0072 122.778 8.75691 115.348C2.24165 100.454 -0.57535 81.9365 13.1809 66.1142L10.9169 64.1458C-3.95686 81.2535 -0.703846 101.206 6.00839 116.55C9.37183 124.239 13.637 130.864 17.0528 135.561C18.7627 137.912 20.2645 139.787 21.3418 141.076C21.8805 141.721 22.3134 142.22 22.6135 142.56C22.7635 142.73 22.8803 142.861 22.9606 142.949C23.0008 142.994 23.0318 143.028 23.0533 143.051C23.064 143.063 23.0723 143.072 23.0782 143.078C23.0812 143.081 23.0835 143.084 23.0852 143.086C23.0861 143.087 23.0869 143.088 23.0873 143.088C23.088 143.089 23.0885 143.089 24.1889 142.07ZM13.1811 66.114C20.0639 58.1946 28.1323 54.8875 36.0729 54.5261C44.0562 54.1628 51.9972 56.777 58.5168 60.8577C65.0551 64.9501 70.0081 70.4182 72.1424 75.5845C73.205 78.1565 73.5394 80.577 73.1175 82.696C72.7019 84.7833 71.5291 86.7052 69.3303 88.2943L71.0875 90.7258C73.8563 88.7248 75.486 86.1633 76.0597 83.2818C76.6271 80.432 76.1377 77.3983 74.9151 74.439C72.4791 68.5425 67.0165 62.6386 60.1085 58.3148C53.1819 53.9793 44.646 51.1328 35.9365 51.5292C27.1843 51.9275 18.3439 55.6004 10.9167 64.146L13.1811 66.114ZM69.3303 88.2943C67.2088 89.8275 64.9991 90.1815 62.7432 89.6337C60.4276 89.0714 57.973 87.5313 55.5533 85.1025C50.7135 80.2441 46.3509 72.1639 43.8529 62.9488C41.3583 53.7466 40.7709 43.587 43.2932 34.6064C45.8026 25.6715 51.3883 17.8822 61.3513 13.2502L60.0865 10.5298C49.2394 15.5729 43.1227 24.1185 40.4049 33.7952C37.7 43.4261 38.3607 54.1547 40.9574 63.7337C43.5506 73.2999 48.1225 81.894 53.428 87.2197C56.081 89.8829 59.0017 91.8123 62.0353 92.549C65.1284 93.3001 68.2416 92.7825 71.0875 90.7258L69.3303 88.2943ZM61.3513 13.2502C71.4627 8.54919 78.9494 8.592 85.2252 11.0561C91.6139 13.5645 96.9541 18.6494 102.627 24.5416C113.846 36.1947 126.072 50.7561 149.471 49.9391L149.367 46.9409C127.516 47.7039 116.201 34.3153 104.788 22.4609C99.1449 16.5994 93.3958 11.0412 86.3216 8.26362C79.1346 5.44178 70.7851 5.55584 60.0865 10.5298L61.3513 13.2502ZM149.471 49.9391C161.025 49.5382 169.394 46.5155 175.411 42.0977C181.425 37.6812 184.979 31.952 187.041 26.3222C189.099 20.7044 189.683 15.1629 189.758 11.0457C189.796 8.98242 189.706 7.26435 189.606 6.0564C189.556 5.45211 189.503 4.97455 189.462 4.64426C189.442 4.47909 189.425 4.35066 189.412 4.26153C189.406 4.21696 189.401 4.18221 189.397 4.1576C189.395 4.1453 189.394 4.13552 189.392 4.12833C189.392 4.12473 189.391 4.12177 189.391 4.11946C189.391 4.11831 189.391 4.11706 189.391 4.11649C189.39 4.11541 189.39 4.11449 187.909 4.35001C186.427 4.58552 186.427 4.58493 186.427 4.5845C186.427 4.58457 186.427 4.58429 186.427 4.58443C186.427 4.58471 186.427 4.58563 186.428 4.58718C186.428 4.59028 186.429 4.59592 186.43 4.60406C186.433 4.62033 186.437 4.6466 186.442 4.68253C186.452 4.7544 186.467 4.86492 186.485 5.01156C186.521 5.30488 186.57 5.74238 186.616 6.30381C186.709 7.42731 186.794 9.04337 186.758 10.9909C186.687 14.8952 186.132 20.0819 184.224 25.2903C182.32 30.4868 179.079 35.6819 173.635 39.6795C168.193 43.6757 160.438 46.5568 149.367 46.9409L149.471 49.9391ZM169.279 17.04C170.271 18.1655 170.271 18.1654 170.271 18.1653C170.271 18.1652 170.271 18.1651 170.271 18.1649C170.272 18.1645 170.272 18.1639 170.273 18.1632C170.275 18.1616 170.278 18.1593 170.281 18.1561C170.288 18.1499 170.299 18.1405 170.313 18.1281C170.341 18.1034 170.383 18.0666 170.438 18.0184C170.547 17.9221 170.708 17.7805 170.914 17.5995C171.327 17.2376 171.919 16.7181 172.639 16.0884C174.08 14.829 176.032 13.1296 178.075 11.369C182.215 7.80291 186.589 4.11309 187.979 3.18937L186.319 0.690642C184.729 1.74692 180.168 5.6071 176.117 9.09603C174.066 10.8629 172.109 12.5673 170.665 13.8297C169.943 14.461 169.349 14.982 168.935 15.3452C168.728 15.5269 168.566 15.6691 168.456 15.7659C168.401 15.8144 168.359 15.8515 168.331 15.8765C168.316 15.889 168.306 15.8985 168.298 15.9049C168.295 15.9081 168.292 15.9105 168.29 15.9121C168.289 15.9129 168.288 15.9135 168.288 15.9139C168.288 15.9141 168.288 15.9143 168.287 15.9144C168.287 15.9145 168.287 15.9146 169.279 17.04ZM187.979 3.18937C187.59 3.44775 187.398 3.13573 187.971 3.45113C188.437 3.70722 189.077 4.2124 189.865 4.98163C191.421 6.50081 193.276 8.7741 195.074 11.2358C196.864 13.6874 198.558 16.2716 199.795 18.3802C200.415 19.4367 200.908 20.3529 201.239 21.0613C201.405 21.4169 201.52 21.697 201.589 21.9022C201.672 22.1483 201.647 22.161 201.649 22.0392L204.649 22.1009C204.657 21.6752 204.535 21.2495 204.431 20.9413C204.313 20.5922 204.149 20.2023 203.957 19.791C203.571 18.9658 203.028 17.9612 202.383 16.862C201.09 14.6591 199.34 11.9913 197.497 9.46667C195.66 6.95216 193.692 4.52483 191.961 2.83495C191.105 1.99964 190.236 1.27318 189.417 0.822511C188.705 0.431152 187.453 -0.0627386 186.319 0.690642L187.979 3.18937Z" fill="#667085"/>
</svg>
