<svg width="270" height="180" viewBox="0 0 270 180" fill="none" xmlns="http://www.w3.org/2000/svg">
<path d="M18.4909 4.25109C18.4695 3.42293 17.7808 2.76894 16.9526 2.79036C16.1245 2.81177 15.4705 3.50048 15.4919 4.32863L18.4909 4.25109ZM165.321 80.5999L166.127 79.3346L166.127 79.3343L165.321 80.5999ZM89.9014 142.19L91.341 141.769L91.341 141.768L89.9014 142.19ZM269.439 124.417C269.907 123.734 269.732 122.8 269.049 122.332C268.365 121.864 267.432 122.039 266.964 122.723L269.439 124.417ZM1.03768 18.7313C0.508258 19.3685 0.595623 20.3142 1.23281 20.8436C1.87 21.373 2.81572 21.2857 3.34514 20.6485L1.03768 18.7313ZM16.7814 2.12988L17.5851 0.86339C16.9481 0.459099 16.1099 0.590946 15.6277 1.17129L16.7814 2.12988ZM35.7333 15.3729C36.475 15.7419 37.3754 15.4398 37.7444 14.6981C38.1134 13.9563 37.8112 13.0559 37.0695 12.6869L35.7333 15.3729ZM16.9914 4.28986C15.4919 4.32863 15.4919 4.32949 15.492 4.33077C15.492 4.33174 15.492 4.33342 15.4921 4.33536C15.4922 4.33924 15.4923 4.34476 15.4925 4.35189C15.4929 4.36615 15.4935 4.38689 15.4944 4.41402C15.496 4.46828 15.4986 4.54809 15.5024 4.6527C15.5099 4.86194 15.522 5.17043 15.5407 5.57227C15.578 6.37594 15.6415 7.55316 15.7462 9.05668C15.9555 12.0634 16.33 16.3768 16.991 21.6185C18.3124 32.0973 20.7814 46.3091 25.3754 61.2191C34.5362 90.9507 52.2944 123.912 86.7295 135.057L87.6533 132.203C54.6684 121.527 37.3266 89.819 28.2424 60.3357C23.7139 45.6382 21.2742 31.6061 19.9674 21.2431C19.3143 16.0639 18.9449 11.8067 18.7389 8.84827C18.6359 7.36917 18.5738 6.21508 18.5375 5.43309C18.5193 5.04211 18.5076 4.74419 18.5005 4.54522C18.4969 4.44573 18.4945 4.37098 18.493 4.32172C18.4922 4.29708 18.4917 4.27882 18.4913 4.26702C18.4912 4.26111 18.491 4.25683 18.491 4.25417C18.4909 4.25284 18.4909 4.25207 18.4909 4.2514C18.4909 4.25104 18.4909 4.25109 16.9914 4.28986ZM86.7295 135.057C120.928 146.125 147.399 136.814 162.105 122.43C169.433 115.263 173.876 106.792 174.792 98.9457C175.713 91.0496 173.043 83.7383 166.127 79.3346L164.516 81.8651C170.29 85.5414 172.626 91.6264 171.812 98.5978C170.992 105.619 166.958 113.487 160.008 120.285C146.159 133.831 120.875 142.955 87.6533 132.203L86.7295 135.057ZM166.127 79.3343C159.392 75.0492 150.202 73.7374 140.587 74.8508C130.948 75.967 120.718 79.5362 111.77 85.2213C93.8561 96.6022 80.8622 116.658 88.4618 142.611L91.341 141.768C84.2206 117.452 96.2467 98.6376 113.378 87.7535C121.952 82.3061 131.751 78.894 140.932 77.8308C150.138 76.7648 158.56 78.0755 164.516 81.8654L166.127 79.3343ZM88.4618 142.611C92.3014 155.73 102.751 165.431 116.747 171.531C130.74 177.631 148.402 180.198 167.008 179.017C204.196 176.655 245.576 159.28 269.439 124.417L266.964 122.723C243.747 156.64 203.332 173.704 166.818 176.023C148.572 177.181 131.406 174.649 117.945 168.781C104.486 162.914 94.8564 153.78 91.341 141.769L88.4618 142.611ZM3.34514 20.6485L17.9351 3.08848L15.6277 1.17129L1.03768 18.7313L3.34514 20.6485ZM16.7814 2.12988C15.9777 3.39638 15.9777 3.39642 15.9779 3.39651C15.978 3.39659 15.9782 3.39671 15.9784 3.39687C15.9789 3.39718 15.9797 3.39765 15.9806 3.39826C15.9826 3.39949 15.9854 3.40131 15.9892 3.40372C15.9968 3.40854 16.0081 3.41571 16.0231 3.42516C16.0529 3.44407 16.0971 3.4721 16.1549 3.50872C16.2705 3.58195 16.4404 3.68952 16.6581 3.82709C17.0933 4.10223 17.7194 4.49737 18.4831 4.97774C20.0104 5.93835 22.0892 7.24037 24.2944 8.60534C28.6692 11.3132 33.6456 14.3342 35.7333 15.3729L37.0695 12.6869C35.1372 11.7256 30.3036 8.7966 25.8734 6.05445C23.6761 4.69441 21.6037 3.39643 20.0803 2.43829C19.3188 1.95928 18.6946 1.56535 18.2611 1.29127C18.0443 1.15423 17.8751 1.04715 17.7603 0.974391C17.7028 0.93801 17.659 0.910207 17.6295 0.891525C17.6148 0.882185 17.6036 0.875124 17.5962 0.870412C17.5925 0.868056 17.5897 0.866288 17.5879 0.865114C17.5869 0.864528 17.5862 0.86409 17.5858 0.863802C17.5856 0.863658 17.5854 0.863555 17.5853 0.863483C17.5852 0.863418 17.5851 0.86339 16.7814 2.12988Z" fill="#667085"/>
</svg>
